<mxfile host="Electron" modified="2023-12-28T21:13:52.143Z" agent="Mozilla/5.0 (X11; Linux x86_64) AppleWebKit/537.36 (KHTML, like Gecko) draw.io/22.1.2 Chrome/114.0.5735.289 Electron/25.9.4 Safari/537.36" etag="RS-XtAatmg-2mpmLa6ed" version="22.1.2" type="device">
  <diagram id="C5RBs43oDa-KdzZeNtuy" name="Page-1">
    <mxGraphModel dx="1798" dy="608" grid="1" gridSize="10" guides="1" tooltips="1" connect="1" arrows="1" fold="1" page="1" pageScale="1" pageWidth="827" pageHeight="1169" math="0" shadow="0">
      <root>
        <mxCell id="WIyWlLk6GJQsqaUBKTNV-0" />
        <mxCell id="WIyWlLk6GJQsqaUBKTNV-1" parent="WIyWlLk6GJQsqaUBKTNV-0" />
        <mxCell id="iinDHbEHu0qQ4H1DUgce-44" value="" style="edgeStyle=orthogonalEdgeStyle;rounded=0;orthogonalLoop=1;jettySize=auto;html=1;" edge="1" parent="WIyWlLk6GJQsqaUBKTNV-1" source="iinDHbEHu0qQ4H1DUgce-0" target="iinDHbEHu0qQ4H1DUgce-3">
          <mxGeometry relative="1" as="geometry" />
        </mxCell>
        <mxCell id="iinDHbEHu0qQ4H1DUgce-0" value="Start" style="strokeWidth=2;html=1;shape=mxgraph.flowchart.start_1;whiteSpace=wrap;" vertex="1" parent="WIyWlLk6GJQsqaUBKTNV-1">
          <mxGeometry x="270" y="290" width="100" height="60" as="geometry" />
        </mxCell>
        <mxCell id="iinDHbEHu0qQ4H1DUgce-45" value="" style="edgeStyle=orthogonalEdgeStyle;rounded=0;orthogonalLoop=1;jettySize=auto;html=1;" edge="1" parent="WIyWlLk6GJQsqaUBKTNV-1" source="iinDHbEHu0qQ4H1DUgce-3" target="iinDHbEHu0qQ4H1DUgce-5">
          <mxGeometry relative="1" as="geometry" />
        </mxCell>
        <mxCell id="iinDHbEHu0qQ4H1DUgce-46" style="edgeStyle=orthogonalEdgeStyle;rounded=0;orthogonalLoop=1;jettySize=auto;html=1;entryX=0.5;entryY=0;entryDx=0;entryDy=0;" edge="1" parent="WIyWlLk6GJQsqaUBKTNV-1" source="iinDHbEHu0qQ4H1DUgce-3" target="iinDHbEHu0qQ4H1DUgce-4">
          <mxGeometry relative="1" as="geometry" />
        </mxCell>
        <mxCell id="iinDHbEHu0qQ4H1DUgce-47" style="edgeStyle=orthogonalEdgeStyle;rounded=0;orthogonalLoop=1;jettySize=auto;html=1;entryX=0.5;entryY=0;entryDx=0;entryDy=0;" edge="1" parent="WIyWlLk6GJQsqaUBKTNV-1" source="iinDHbEHu0qQ4H1DUgce-3" target="iinDHbEHu0qQ4H1DUgce-6">
          <mxGeometry relative="1" as="geometry" />
        </mxCell>
        <mxCell id="iinDHbEHu0qQ4H1DUgce-3" value="Initialize Power" style="rounded=0;whiteSpace=wrap;html=1;" vertex="1" parent="WIyWlLk6GJQsqaUBKTNV-1">
          <mxGeometry x="260" y="390" width="120" height="60" as="geometry" />
        </mxCell>
        <mxCell id="iinDHbEHu0qQ4H1DUgce-48" value="" style="edgeStyle=orthogonalEdgeStyle;rounded=0;orthogonalLoop=1;jettySize=auto;html=1;" edge="1" parent="WIyWlLk6GJQsqaUBKTNV-1" source="iinDHbEHu0qQ4H1DUgce-4" target="iinDHbEHu0qQ4H1DUgce-26">
          <mxGeometry relative="1" as="geometry" />
        </mxCell>
        <mxCell id="iinDHbEHu0qQ4H1DUgce-4" value="Flame Sensor" style="rounded=0;whiteSpace=wrap;html=1;" vertex="1" parent="WIyWlLk6GJQsqaUBKTNV-1">
          <mxGeometry x="40" y="480" width="120" height="60" as="geometry" />
        </mxCell>
        <mxCell id="iinDHbEHu0qQ4H1DUgce-62" style="edgeStyle=orthogonalEdgeStyle;rounded=0;orthogonalLoop=1;jettySize=auto;html=1;entryX=0.5;entryY=0;entryDx=0;entryDy=0;" edge="1" parent="WIyWlLk6GJQsqaUBKTNV-1" source="iinDHbEHu0qQ4H1DUgce-5" target="iinDHbEHu0qQ4H1DUgce-34">
          <mxGeometry relative="1" as="geometry">
            <Array as="points">
              <mxPoint x="230" y="520" />
            </Array>
          </mxGeometry>
        </mxCell>
        <mxCell id="iinDHbEHu0qQ4H1DUgce-63" style="edgeStyle=orthogonalEdgeStyle;rounded=0;orthogonalLoop=1;jettySize=auto;html=1;" edge="1" parent="WIyWlLk6GJQsqaUBKTNV-1" source="iinDHbEHu0qQ4H1DUgce-5">
          <mxGeometry relative="1" as="geometry">
            <mxPoint x="410" y="560" as="targetPoint" />
          </mxGeometry>
        </mxCell>
        <mxCell id="iinDHbEHu0qQ4H1DUgce-5" value="Gyro Sensor" style="rounded=0;whiteSpace=wrap;html=1;" vertex="1" parent="WIyWlLk6GJQsqaUBKTNV-1">
          <mxGeometry x="260" y="480" width="120" height="60" as="geometry" />
        </mxCell>
        <mxCell id="iinDHbEHu0qQ4H1DUgce-74" value="" style="edgeStyle=orthogonalEdgeStyle;rounded=0;orthogonalLoop=1;jettySize=auto;html=1;" edge="1" parent="WIyWlLk6GJQsqaUBKTNV-1" source="iinDHbEHu0qQ4H1DUgce-6" target="iinDHbEHu0qQ4H1DUgce-36">
          <mxGeometry relative="1" as="geometry" />
        </mxCell>
        <mxCell id="iinDHbEHu0qQ4H1DUgce-6" value="Ultrasonic Sensor" style="rounded=0;whiteSpace=wrap;html=1;" vertex="1" parent="WIyWlLk6GJQsqaUBKTNV-1">
          <mxGeometry x="510" y="480" width="120" height="60" as="geometry" />
        </mxCell>
        <mxCell id="iinDHbEHu0qQ4H1DUgce-60" value="" style="edgeStyle=orthogonalEdgeStyle;rounded=0;orthogonalLoop=1;jettySize=auto;html=1;" edge="1" parent="WIyWlLk6GJQsqaUBKTNV-1" source="iinDHbEHu0qQ4H1DUgce-26" target="iinDHbEHu0qQ4H1DUgce-42">
          <mxGeometry relative="1" as="geometry" />
        </mxCell>
        <mxCell id="iinDHbEHu0qQ4H1DUgce-61" style="edgeStyle=orthogonalEdgeStyle;rounded=0;orthogonalLoop=1;jettySize=auto;html=1;entryX=0.5;entryY=0;entryDx=0;entryDy=0;" edge="1" parent="WIyWlLk6GJQsqaUBKTNV-1" source="iinDHbEHu0qQ4H1DUgce-26" target="iinDHbEHu0qQ4H1DUgce-57">
          <mxGeometry relative="1" as="geometry">
            <mxPoint x="100" y="830" as="targetPoint" />
            <Array as="points">
              <mxPoint x="100" y="860" />
              <mxPoint x="330" y="860" />
            </Array>
          </mxGeometry>
        </mxCell>
        <mxCell id="iinDHbEHu0qQ4H1DUgce-26" value="Fire Detected" style="rhombus;whiteSpace=wrap;html=1;" vertex="1" parent="WIyWlLk6GJQsqaUBKTNV-1">
          <mxGeometry x="60" y="570" width="80" height="80" as="geometry" />
        </mxCell>
        <mxCell id="iinDHbEHu0qQ4H1DUgce-64" style="edgeStyle=orthogonalEdgeStyle;rounded=0;orthogonalLoop=1;jettySize=auto;html=1;entryX=0.5;entryY=0;entryDx=0;entryDy=0;" edge="1" parent="WIyWlLk6GJQsqaUBKTNV-1" source="iinDHbEHu0qQ4H1DUgce-30" target="iinDHbEHu0qQ4H1DUgce-57">
          <mxGeometry relative="1" as="geometry">
            <Array as="points">
              <mxPoint x="410" y="860" />
              <mxPoint x="330" y="860" />
            </Array>
          </mxGeometry>
        </mxCell>
        <mxCell id="iinDHbEHu0qQ4H1DUgce-73" style="edgeStyle=orthogonalEdgeStyle;rounded=0;orthogonalLoop=1;jettySize=auto;html=1;entryX=0.5;entryY=0;entryDx=0;entryDy=0;" edge="1" parent="WIyWlLk6GJQsqaUBKTNV-1" source="iinDHbEHu0qQ4H1DUgce-30" target="iinDHbEHu0qQ4H1DUgce-42">
          <mxGeometry relative="1" as="geometry">
            <Array as="points">
              <mxPoint x="330" y="600" />
              <mxPoint x="330" y="550" />
              <mxPoint x="-60" y="550" />
            </Array>
          </mxGeometry>
        </mxCell>
        <mxCell id="iinDHbEHu0qQ4H1DUgce-30" value="Flip Detected" style="rhombus;whiteSpace=wrap;html=1;" vertex="1" parent="WIyWlLk6GJQsqaUBKTNV-1">
          <mxGeometry x="370" y="560" width="80" height="80" as="geometry" />
        </mxCell>
        <mxCell id="iinDHbEHu0qQ4H1DUgce-55" value="" style="edgeStyle=orthogonalEdgeStyle;rounded=0;orthogonalLoop=1;jettySize=auto;html=1;" edge="1" parent="WIyWlLk6GJQsqaUBKTNV-1" source="iinDHbEHu0qQ4H1DUgce-34" target="iinDHbEHu0qQ4H1DUgce-35">
          <mxGeometry relative="1" as="geometry" />
        </mxCell>
        <mxCell id="iinDHbEHu0qQ4H1DUgce-72" style="edgeStyle=orthogonalEdgeStyle;rounded=0;orthogonalLoop=1;jettySize=auto;html=1;entryX=0.5;entryY=1;entryDx=0;entryDy=0;" edge="1" parent="WIyWlLk6GJQsqaUBKTNV-1" source="iinDHbEHu0qQ4H1DUgce-34" target="iinDHbEHu0qQ4H1DUgce-42">
          <mxGeometry relative="1" as="geometry">
            <Array as="points">
              <mxPoint x="170" y="610" />
              <mxPoint x="170" y="670" />
              <mxPoint x="-60" y="670" />
            </Array>
          </mxGeometry>
        </mxCell>
        <mxCell id="iinDHbEHu0qQ4H1DUgce-34" value="High Temp" style="rhombus;whiteSpace=wrap;html=1;" vertex="1" parent="WIyWlLk6GJQsqaUBKTNV-1">
          <mxGeometry x="190" y="570" width="80" height="80" as="geometry" />
        </mxCell>
        <mxCell id="iinDHbEHu0qQ4H1DUgce-56" style="edgeStyle=orthogonalEdgeStyle;rounded=0;orthogonalLoop=1;jettySize=auto;html=1;entryX=1;entryY=0.5;entryDx=0;entryDy=0;" edge="1" parent="WIyWlLk6GJQsqaUBKTNV-1" source="iinDHbEHu0qQ4H1DUgce-35" target="iinDHbEHu0qQ4H1DUgce-26">
          <mxGeometry relative="1" as="geometry">
            <Array as="points">
              <mxPoint x="160" y="730" />
              <mxPoint x="160" y="610" />
            </Array>
          </mxGeometry>
        </mxCell>
        <mxCell id="iinDHbEHu0qQ4H1DUgce-66" style="edgeStyle=orthogonalEdgeStyle;rounded=0;orthogonalLoop=1;jettySize=auto;html=1;entryX=0;entryY=0.5;entryDx=0;entryDy=0;" edge="1" parent="WIyWlLk6GJQsqaUBKTNV-1" source="iinDHbEHu0qQ4H1DUgce-35" target="iinDHbEHu0qQ4H1DUgce-38">
          <mxGeometry relative="1" as="geometry">
            <Array as="points">
              <mxPoint x="230" y="800" />
              <mxPoint x="500" y="800" />
              <mxPoint x="500" y="740" />
            </Array>
          </mxGeometry>
        </mxCell>
        <mxCell id="iinDHbEHu0qQ4H1DUgce-35" value="Warn" style="rounded=0;whiteSpace=wrap;html=1;" vertex="1" parent="WIyWlLk6GJQsqaUBKTNV-1">
          <mxGeometry x="170" y="700" width="120" height="60" as="geometry" />
        </mxCell>
        <mxCell id="iinDHbEHu0qQ4H1DUgce-65" style="edgeStyle=orthogonalEdgeStyle;rounded=0;orthogonalLoop=1;jettySize=auto;html=1;entryX=1;entryY=0.5;entryDx=0;entryDy=0;" edge="1" parent="WIyWlLk6GJQsqaUBKTNV-1" source="iinDHbEHu0qQ4H1DUgce-36" target="iinDHbEHu0qQ4H1DUgce-35">
          <mxGeometry relative="1" as="geometry">
            <Array as="points">
              <mxPoint x="480" y="610" />
              <mxPoint x="480" y="730" />
            </Array>
          </mxGeometry>
        </mxCell>
        <mxCell id="iinDHbEHu0qQ4H1DUgce-67" style="edgeStyle=orthogonalEdgeStyle;rounded=0;orthogonalLoop=1;jettySize=auto;html=1;entryX=0.5;entryY=0;entryDx=0;entryDy=0;" edge="1" parent="WIyWlLk6GJQsqaUBKTNV-1" source="iinDHbEHu0qQ4H1DUgce-36" target="iinDHbEHu0qQ4H1DUgce-38">
          <mxGeometry relative="1" as="geometry" />
        </mxCell>
        <mxCell id="iinDHbEHu0qQ4H1DUgce-76" value="" style="edgeStyle=orthogonalEdgeStyle;rounded=0;orthogonalLoop=1;jettySize=auto;html=1;" edge="1" parent="WIyWlLk6GJQsqaUBKTNV-1" source="iinDHbEHu0qQ4H1DUgce-36" target="iinDHbEHu0qQ4H1DUgce-75">
          <mxGeometry relative="1" as="geometry" />
        </mxCell>
        <mxCell id="iinDHbEHu0qQ4H1DUgce-36" value="Obstacle Detected" style="rhombus;whiteSpace=wrap;html=1;" vertex="1" parent="WIyWlLk6GJQsqaUBKTNV-1">
          <mxGeometry x="530" y="570" width="80" height="80" as="geometry" />
        </mxCell>
        <mxCell id="iinDHbEHu0qQ4H1DUgce-68" style="edgeStyle=orthogonalEdgeStyle;rounded=0;orthogonalLoop=1;jettySize=auto;html=1;entryX=0.5;entryY=0;entryDx=0;entryDy=0;" edge="1" parent="WIyWlLk6GJQsqaUBKTNV-1" source="iinDHbEHu0qQ4H1DUgce-38" target="iinDHbEHu0qQ4H1DUgce-57">
          <mxGeometry relative="1" as="geometry">
            <Array as="points">
              <mxPoint x="570" y="860" />
              <mxPoint x="330" y="860" />
            </Array>
          </mxGeometry>
        </mxCell>
        <mxCell id="iinDHbEHu0qQ4H1DUgce-38" value="Crash" style="rhombus;whiteSpace=wrap;html=1;" vertex="1" parent="WIyWlLk6GJQsqaUBKTNV-1">
          <mxGeometry x="530" y="700" width="80" height="80" as="geometry" />
        </mxCell>
        <mxCell id="iinDHbEHu0qQ4H1DUgce-42" value="Continue" style="rounded=0;whiteSpace=wrap;html=1;" vertex="1" parent="WIyWlLk6GJQsqaUBKTNV-1">
          <mxGeometry x="-120" y="580" width="120" height="60" as="geometry" />
        </mxCell>
        <mxCell id="iinDHbEHu0qQ4H1DUgce-69" value="" style="edgeStyle=orthogonalEdgeStyle;rounded=0;orthogonalLoop=1;jettySize=auto;html=1;" edge="1" parent="WIyWlLk6GJQsqaUBKTNV-1" source="iinDHbEHu0qQ4H1DUgce-57" target="iinDHbEHu0qQ4H1DUgce-58">
          <mxGeometry relative="1" as="geometry" />
        </mxCell>
        <mxCell id="iinDHbEHu0qQ4H1DUgce-57" value="Get Location" style="rounded=0;whiteSpace=wrap;html=1;" vertex="1" parent="WIyWlLk6GJQsqaUBKTNV-1">
          <mxGeometry x="270" y="920" width="120" height="60" as="geometry" />
        </mxCell>
        <mxCell id="iinDHbEHu0qQ4H1DUgce-70" value="" style="edgeStyle=orthogonalEdgeStyle;rounded=0;orthogonalLoop=1;jettySize=auto;html=1;" edge="1" parent="WIyWlLk6GJQsqaUBKTNV-1" source="iinDHbEHu0qQ4H1DUgce-58" target="iinDHbEHu0qQ4H1DUgce-59">
          <mxGeometry relative="1" as="geometry" />
        </mxCell>
        <mxCell id="iinDHbEHu0qQ4H1DUgce-58" value="Turn Off Engine" style="rounded=0;whiteSpace=wrap;html=1;" vertex="1" parent="WIyWlLk6GJQsqaUBKTNV-1">
          <mxGeometry x="270" y="1010" width="120" height="60" as="geometry" />
        </mxCell>
        <mxCell id="iinDHbEHu0qQ4H1DUgce-87" value="" style="edgeStyle=orthogonalEdgeStyle;rounded=0;orthogonalLoop=1;jettySize=auto;html=1;" edge="1" parent="WIyWlLk6GJQsqaUBKTNV-1" source="iinDHbEHu0qQ4H1DUgce-59" target="iinDHbEHu0qQ4H1DUgce-86">
          <mxGeometry relative="1" as="geometry" />
        </mxCell>
        <mxCell id="iinDHbEHu0qQ4H1DUgce-59" value="Send SOS" style="rounded=0;whiteSpace=wrap;html=1;" vertex="1" parent="WIyWlLk6GJQsqaUBKTNV-1">
          <mxGeometry x="270" y="1100" width="120" height="60" as="geometry" />
        </mxCell>
        <mxCell id="iinDHbEHu0qQ4H1DUgce-75" value="Continue" style="rounded=0;whiteSpace=wrap;html=1;" vertex="1" parent="WIyWlLk6GJQsqaUBKTNV-1">
          <mxGeometry x="640" y="580" width="120" height="60" as="geometry" />
        </mxCell>
        <mxCell id="iinDHbEHu0qQ4H1DUgce-77" value="yes&lt;br&gt;" style="text;html=1;align=center;verticalAlign=middle;resizable=0;points=[];autosize=1;strokeColor=none;fillColor=none;" vertex="1" parent="WIyWlLk6GJQsqaUBKTNV-1">
          <mxGeometry x="60" y="698" width="40" height="30" as="geometry" />
        </mxCell>
        <mxCell id="iinDHbEHu0qQ4H1DUgce-78" value="no" style="text;html=1;align=center;verticalAlign=middle;resizable=0;points=[];autosize=1;strokeColor=none;fillColor=none;" vertex="1" parent="WIyWlLk6GJQsqaUBKTNV-1">
          <mxGeometry x="20" y="578" width="40" height="30" as="geometry" />
        </mxCell>
        <mxCell id="iinDHbEHu0qQ4H1DUgce-79" value="yes" style="text;html=1;align=center;verticalAlign=middle;resizable=0;points=[];autosize=1;strokeColor=none;fillColor=none;" vertex="1" parent="WIyWlLk6GJQsqaUBKTNV-1">
          <mxGeometry x="230" y="658" width="40" height="30" as="geometry" />
        </mxCell>
        <mxCell id="iinDHbEHu0qQ4H1DUgce-80" value="no" style="text;html=1;align=center;verticalAlign=middle;resizable=0;points=[];autosize=1;strokeColor=none;fillColor=none;" vertex="1" parent="WIyWlLk6GJQsqaUBKTNV-1">
          <mxGeometry x="150" y="568" width="40" height="30" as="geometry" />
        </mxCell>
        <mxCell id="iinDHbEHu0qQ4H1DUgce-81" value="no" style="text;html=1;align=center;verticalAlign=middle;resizable=0;points=[];autosize=1;strokeColor=none;fillColor=none;" vertex="1" parent="WIyWlLk6GJQsqaUBKTNV-1">
          <mxGeometry x="290" y="568" width="40" height="30" as="geometry" />
        </mxCell>
        <mxCell id="iinDHbEHu0qQ4H1DUgce-82" value="yes&lt;br&gt;" style="text;html=1;align=center;verticalAlign=middle;resizable=0;points=[];autosize=1;strokeColor=none;fillColor=none;" vertex="1" parent="WIyWlLk6GJQsqaUBKTNV-1">
          <mxGeometry x="400" y="668" width="40" height="30" as="geometry" />
        </mxCell>
        <mxCell id="iinDHbEHu0qQ4H1DUgce-83" value="yes" style="text;html=1;align=center;verticalAlign=middle;resizable=0;points=[];autosize=1;strokeColor=none;fillColor=none;" vertex="1" parent="WIyWlLk6GJQsqaUBKTNV-1">
          <mxGeometry x="490" y="578" width="40" height="30" as="geometry" />
        </mxCell>
        <mxCell id="iinDHbEHu0qQ4H1DUgce-84" value="yes&lt;br&gt;" style="text;html=1;align=center;verticalAlign=middle;resizable=0;points=[];autosize=1;strokeColor=none;fillColor=none;" vertex="1" parent="WIyWlLk6GJQsqaUBKTNV-1">
          <mxGeometry x="580" y="658" width="40" height="30" as="geometry" />
        </mxCell>
        <mxCell id="iinDHbEHu0qQ4H1DUgce-85" value="no" style="text;html=1;align=center;verticalAlign=middle;resizable=0;points=[];autosize=1;strokeColor=none;fillColor=none;" vertex="1" parent="WIyWlLk6GJQsqaUBKTNV-1">
          <mxGeometry x="590" y="558" width="40" height="30" as="geometry" />
        </mxCell>
        <mxCell id="iinDHbEHu0qQ4H1DUgce-86" value="End&lt;br&gt;" style="strokeWidth=2;html=1;shape=mxgraph.flowchart.start_1;whiteSpace=wrap;" vertex="1" parent="WIyWlLk6GJQsqaUBKTNV-1">
          <mxGeometry x="280" y="1190" width="100" height="60" as="geometry" />
        </mxCell>
      </root>
    </mxGraphModel>
  </diagram>
</mxfile>
